<?xml version="1.0" standalone="no"?>
<!DOCTYPE svg PUBLIC "-//W3C//DTD SVG 20010904//EN"
 "http://www.w3.org/TR/2001/REC-SVG-20010904/DTD/svg10.dtd">
<svg version="1.0" xmlns="http://www.w3.org/2000/svg"
 width="67.000000pt" height="65.000000pt" viewBox="0 0 67.000000 65.000000"
 preserveAspectRatio="xMidYMid meet">

<g transform="translate(0.000000,65.000000) scale(0.100000,-0.100000)"
fill="#000000" stroke="none">
<path d="M265 626 c-16 -8 -76 -60 -132 -117 -109 -112 -123 -139 -108 -216 5
-31 28 -59 118 -150 120 -120 145 -133 224 -118 31 5 59 28 150 118 90 91 113
119 118 150 15 77 1 104 -108 216 -56 57 -116 110 -134 117 -40 17 -89 17
-128 0z m178 -184 c63 -63 87 -94 87 -112 0 -35 -165 -200 -200 -200 -35 0
-200 165 -200 200 0 35 164 200 200 200 19 0 49 -23 113 -88z"/>
</g>
</svg>
